# xmcd CD database file
#
# Track frame offsets:
#	150
#	13333
#	23568
#	37703
#	47525
#	55798
#	64940
#	74695
#	84008
#	167165
#	196663
#	255138
#	261635
#	269023
#	275915
#	288145
#	298010
#	307435
#
# Disc length: 4207 seconds
#
# Revision: 3
# Processed by: cddbd v1.5PL3 Copyright (c) Steve Scherf et al.
# Submitted via: CDex 1.50Beta7
#
DISCID=0c106d12
DTITLE=Eric Ericson - Virtuose Chormusik [CD2)
DYEAR=1900
DGENRE=Chorus
TTITLE0=Reger: Acht geistliche Gesange, op. 138 - 1. Der mensch lebt unt bestehet
TTITLE1=2. Morgengesang
TTITLE2=3. Nachtlied
TTITLE3=4. Unser lieben Frauen Traum
TTITLE4=5. Kreuzfahrerlied
TTITLE5=6. Das Agnus Dei
TTITLE6=7. Schlachtgesang
TTITLE7=8. Wir glauben an einen Gott
TTITLE8=Reger: Ach, Herr, strafe mich nicht, op. 110 Nr, 2
TTITLE9=Strauss: Die Gottin im Putzzimmer
TTITLE10=Strauss: Der Abend
TTITLE11=Poulenc: Sept Chansons - 1. La blanche neige
TTITLE12=2. A peine defiguree
TTITLE13=3. Par une nuit nouvelle
TTITLE14=4. Tous les droits
TTITLE15=5. Belle et ressemblante
TTITLE16=6. Marie
TTITLE17=7. Luire
EXTD=
EXTT0=
EXTT1=
EXTT2=
EXTT3=
EXTT4=
EXTT5=
EXTT6=
EXTT7=
EXTT8=
EXTT9=
EXTT10=
EXTT11=
EXTT12=
EXTT13=
EXTT14=
EXTT15=
EXTT16=
EXTT17=
PLAYORDER=
